<?xml version="1.0" encoding="UTF-8" standalone="no"?>
<!DOCTYPE svg PUBLIC "-//W3C//DTD SVG 1.1//EN" "http://www.w3.org/Graphics/SVG/1.1/DTD/svg11.dtd">
<svg version="1.1" xmlns="http://www.w3.org/2000/svg" xmlns:xlink="http://www.w3.org/1999/xlink" preserveAspectRatio="xMidYMid meet" viewBox="0 0 640 640" width="640" height="640"><defs><path d="M504.06 590.44L504.11 590.54L504.21 590.75L504.37 591.07L504.59 591.49L504.85 592.02L505.17 592.64L505.52 593.34L505.92 594.12L506.36 594.98L506.83 595.9L507.33 596.89L507.86 597.93L508.41 599.02L508.99 600.15L509.58 601.31L510.19 602.51L510.82 603.73L511.45 604.97L512.09 606.23L512.73 607.48L513.37 608.74L514 609.99L514.63 611.22L515.25 612.44L515.86 613.63L516.45 614.79L517.02 615.91L517.57 616.99L518.1 618.01L518.59 618.98L519.05 619.89L519.48 620.73L519.87 621.49L520.22 622.17L520.52 622.76L520.77 623.26L520.98 623.66L521.13 623.95L521.25 624.19L521.34 624.21L521.39 624.26L521.41 624.33L521.4 624.42L521.36 624.54L521.3 624.67L521.21 624.83L521.09 625L520.96 625.19L520.79 625.39L520.61 625.61L520.41 625.84L520.19 626.08L519.95 626.32L519.7 626.58L519.43 626.85L519.15 627.12L518.86 627.39L518.56 627.67L518.25 627.94L517.93 628.22L517.6 628.5L517.27 628.77L516.93 629.04L516.59 629.3L516.25 629.55L515.91 629.8L515.58 630.04L515.24 630.27L514.91 630.48L514.58 630.68L514.26 630.87L513.94 631.03L513.64 631.18L513.34 631.31L513.06 631.42L512.79 631.51L512.53 631.58L512.29 631.62L512.06 631.63L500.84 633.35L489.28 634.84L477.4 636.13L465.25 637.21L452.85 638.1L440.23 638.81L427.44 639.35L414.5 639.72L401.45 639.93L388.31 640L375.12 639.93L361.91 639.73L348.72 639.42L335.58 638.99L322.52 638.47L309.57 637.85L296.77 637.15L284.14 636.38L271.73 635.54L259.55 634.65L247.66 633.71L236.07 632.73L224.83 631.73L213.96 630.71L203.49 629.68L193.46 628.65L183.91 627.64L174.86 626.63L166.34 625.66L158.4 624.72L151.06 623.83L144.35 622.99L138.31 622.22L132.97 621.52L128.36 620.91L124.51 620.38L121.47 619.96L119.25 619.64L117.9 619.45L117.44 619.38L82.88 571.51L83.04 571.35L83.23 571.2L83.43 571.05L83.66 570.91L83.91 570.76L84.18 570.62L84.47 570.49L84.77 570.35L85.1 570.22L85.44 570.08L85.81 569.96L86.19 569.83L86.58 569.71L87 569.58L87.43 569.47L87.88 569.35L88.34 569.23L88.82 569.12L89.32 569.01L89.83 568.9L90.35 568.8L90.89 568.7L91.45 568.59L92.01 568.5L92.6 568.4L93.19 568.3L93.8 568.21L94.42 568.12L95.05 568.03L95.69 567.95L96.34 567.86L97.01 567.78L97.68 567.7L98.37 567.62L99.07 567.55L99.77 567.47L100.49 567.4L101.21 567.33L101.95 567.26L102.69 567.19L102.9 566.09L103.19 564.72L103.57 563.06L104.04 561.1L104.61 558.82L105.3 556.2L106.11 553.22L107.06 549.87L108.15 546.13L109.4 541.98L110.82 537.4L112.42 532.38L114.2 526.89L116.18 520.93L118.37 514.46L120.77 507.48L123.41 499.97L126.28 491.9L129.41 483.27L132.79 474.05L136.44 464.23L140.38 453.79L144.6 442.7L149.13 430.96L153.96 418.54L159.12 405.44L164.62 391.62L170.45 377.07L176.64 361.78L183.19 345.73L190.11 328.89L197.42 311.26L205.12 292.81L213.23 273.52L221.75 253.39L230.69 232.38L240.07 210.49L249.9 187.7L260.19 163.98L270.94 139.32L284.88 15.57L284.93 14.97L284.98 14.39L285.04 13.82L285.09 13.26L285.14 12.72L285.19 12.19L285.23 11.68L285.28 11.18L285.32 10.69L285.37 10.22L285.41 9.77L285.45 9.33L285.49 8.9L285.52 8.49L285.56 8.09L285.6 7.71L285.63 7.34L285.66 6.99L285.69 6.65L285.72 6.33L285.75 6.02L285.77 5.73L285.8 5.45L285.82 5.19L285.84 4.94L285.86 4.71L285.88 4.49L285.9 4.29L285.91 4.11L285.93 3.94L285.94 3.79L285.96 3.65L285.97 3.53L285.97 3.42L285.98 3.33L285.99 3.26L286 3.16L286 3.13L294.75 3.26L504.06 590.44ZM289.69 15.82L290.18 18.78L291.13 23.42L292.51 29.66L294.29 37.4L296.45 46.55L298.98 57.02L301.83 68.72L305 81.55L308.44 95.43L312.15 110.27L316.1 125.96L320.26 142.43L324.6 159.57L329.11 177.31L333.75 195.54L338.52 214.17L343.37 233.12L348.29 252.29L353.25 271.59L358.23 290.94L363.2 310.22L368.14 329.37L373.03 348.28L377.83 366.86L382.54 385.03L387.11 402.69L391.54 419.74L395.79 436.1L399.83 451.68L403.66 466.39L407.23 480.13L410.53 492.81L413.53 504.34L416.21 514.63L418.55 523.59L420.51 531.12L422.08 537.14L423.24 541.55L423.95 544.27L424.19 545.19L366.5 539.82L380.5 580.38L499.5 585.82L292.63 6.51L290.13 8.38L289.69 15.82ZM289.19 576.26L377.44 580.32L363.38 539.57L283.5 532.07L286.88 566.82L289.19 576.26ZM220.32 557.36L218.41 557.76L216.44 558.16L214.44 558.57L212.38 558.99L210.29 559.41L208.15 559.83L205.98 560.25L203.78 560.67L201.54 561.09L199.28 561.52L196.99 561.94L194.67 562.37L192.33 562.79L189.97 563.21L187.59 563.62L185.19 564.04L182.79 564.45L180.37 564.86L177.94 565.26L175.51 565.66L173.07 566.05L170.63 566.44L168.2 566.82L165.76 567.19L163.33 567.55L160.91 567.91L158.5 568.26L159.06 571.82L203.75 576.26L218.44 568.57L222.69 568.57L224 556.57L222.19 556.96L220.32 557.36ZM242.27 552.34L241.25 552.58L240.1 552.85L238.84 553.14L237.46 553.46L235.97 553.8L234.38 554.16L232.68 554.54L230.88 554.95L228.99 555.37L227 555.82L225.63 568.57L241.38 568.57L243.19 567.38L243.25 566.14L243.31 564.9L243.37 563.64L243.42 562.38L243.48 561.11L243.54 559.83L243.6 558.54L243.66 557.24L243.72 555.93L243.79 554.61L243.86 553.28L243.94 551.94L243.17 552.13L242.27 552.34ZM265.17 562.48L267.01 562.52L268.71 562.57L270.27 562.61L271.71 562.67L273.03 562.72L274.24 562.78L275.36 562.85L276.38 562.93L277.31 563.01L278.17 563.09L278.96 563.19L279.69 563.3L280.36 563.41L280.99 563.53L281.59 563.67L282.15 563.81L282.7 563.97L283.23 564.14L283.75 564.32L280.56 531.76L264.56 530.26L263.19 562.44L265.17 562.48ZM253.31 563.96L253.81 563.86L254.3 563.77L254.79 563.67L255.28 563.58L255.76 563.49L256.23 563.4L256.7 563.32L257.17 563.24L257.63 563.16L258.09 563.09L258.54 563.01L258.99 562.94L259.44 562.88L259.88 562.82L260.31 562.76L261.69 530.01L255.13 529.38L252.81 564.07L253.31 563.96ZM274.81 130.44L274.81 130.44L233.63 496.13L233.83 497.35L234.04 498.58L234.26 499.8L234.47 501.03L234.69 502.25L234.91 503.48L235.14 504.71L235.37 505.93L235.6 507.16L235.83 508.39L236.07 509.62L236.3 510.85L236.55 512.08L236.79 513.31L237.04 514.54L237.29 515.77L237.54 517.01L237.8 518.24L238.06 519.47L238.32 520.71L238.59 521.94L238.85 523.18L239.12 524.42L239.4 525.66L239.68 526.89L239.96 528.13L240.24 529.37L240.52 530.61L240.81 531.86L241.1 533.1L241.4 534.34L241.7 535.58L242 536.83L242.3 538.08L242.61 539.32L242.92 540.57L243.23 541.82L243.55 543.07L243.87 544.32L244.19 545.57L244.64 536.95L245.13 528.08L245.65 518.99L246.2 509.68L246.77 500.17L247.37 490.46L248 480.57L248.65 470.51L249.33 460.29L250.02 449.93L250.74 439.43L251.47 428.82L252.22 418.09L252.99 407.26L253.78 396.35L254.58 385.36L255.39 374.31L256.22 363.21L257.05 352.07L257.9 340.9L258.75 329.72L259.61 318.54L260.48 307.36L261.35 296.21L262.23 285.08L263.1 274L263.98 262.98L264.86 252.02L265.73 241.15L266.61 230.37L267.48 219.69L268.34 209.12L269.2 198.69L270.05 188.39L270.9 178.24L271.73 168.26L272.55 158.45L273.36 148.83L274.16 139.41L274.94 130.19L274.98 129.6L275.03 128.9L275.1 128.07L275.19 127.13L275.04 128.46L274.81 130.44ZM266.68 156.61L265.19 160.61L263.62 164.93L261.98 169.55L260.27 174.48L258.52 179.7L256.72 185.22L254.88 191.03L253.02 197.11L251.15 203.48L249.27 210.11L247.39 217.02L245.52 224.18L243.68 231.6L241.87 239.28L240.1 247.2L238.37 255.36L236.71 263.76L235.12 272.39L233.6 281.24L232.17 290.32L230.84 299.61L229.61 309.12L228.5 318.82L227.51 328.73L226.65 338.84L225.94 349.13L225.38 359.61L224.98 370.27L224.75 381.1L224.71 392.11L224.85 403.28L225.19 414.6L225.74 426.09L226.51 437.72L227.5 449.49L228.73 461.41L230.21 473.45L231.94 485.63L269.38 149.57L268.08 152.93L266.68 156.61ZM274.87 130.35L274.86 130.35L274.86 130.37L274.86 130.37L274.85 130.38L274.85 130.39L274.85 130.39L274.84 130.4L274.84 130.41L274.84 130.41L274.83 130.42L274.83 130.42L274.83 130.43L274.82 130.43L274.82 130.44L274.81 130.44L274.85 130.39L274.88 130.32L274.87 130.33L274.87 130.35Z" id="a37UI5lQB3"></path></defs><g><g><g><use xlink:href="#a37UI5lQB3" opacity="1" fill="#000000" fill-opacity="1"></use><g><use xlink:href="#a37UI5lQB3" opacity="1" fill-opacity="0" stroke="#000000" stroke-width="1" stroke-opacity="0"></use></g></g></g></g></svg>